REM DIRINDEX 1\4,1\2\5,1\2\6,1\3\7,1\3\8
REM DIRNAME folder01,folder02,folder03,folder04,folder05,folder06,folder07,folder08
TITLE ""
FILE "086_Day43_Check3_Sentences.mp3" MP3
  TRACK 01 AUDIO
    TITLE "0:"
    INDEX 01 00:00:00
  TRACK 02 AUDIO
    TITLE "4:cjc124_2808"
    INDEX 01 00:00:25
  TRACK 03 AUDIO
    TITLE "0:"
    INDEX 01 00:02:00
  TRACK 04 AUDIO
    TITLE "7:cjc124_2809"
    INDEX 01 00:02:49
  TRACK 05 AUDIO
    TITLE "0:"
    INDEX 01 00:04:46
  TRACK 06 AUDIO
    TITLE "8:cjc124_2810"
    INDEX 01 00:04:70
  TRACK 07 AUDIO
    TITLE "0:"
    INDEX 01 00:07:66
  TRACK 08 AUDIO
    TITLE "7:cjc124_2811"
    INDEX 01 00:08:32
  TRACK 09 AUDIO
    TITLE "0:"
    INDEX 01 00:12:26
  TRACK 10 AUDIO
    TITLE "8:cjc124_2812"
    INDEX 01 00:12:46
  TRACK 11 AUDIO
    TITLE "0:"
    INDEX 01 00:16:12
  TRACK 12 AUDIO
    TITLE "7:cjc124_2813"
    INDEX 01 00:16:49
  TRACK 13 AUDIO
    TITLE "0:"
    INDEX 01 00:19:50
  TRACK 14 AUDIO
    TITLE "8:cjc124_2814"
    INDEX 01 00:19:65
  TRACK 15 AUDIO
    TITLE "0:"
    INDEX 01 00:22:48
  TRACK 16 AUDIO
    TITLE "7:cjc124_2815"
    INDEX 01 00:23:08
  TRACK 17 AUDIO
    TITLE "0:"
    INDEX 01 00:25:45
  TRACK 18 AUDIO
    TITLE "8:cjc124_2816"
    INDEX 01 00:25:62
  TRACK 19 AUDIO
    TITLE "0:"
    INDEX 01 00:27:65
  TRACK 20 AUDIO
    TITLE "7:cjc124_2817"
    INDEX 01 00:28:39
  TRACK 21 AUDIO
    TITLE "0:"
    INDEX 01 00:30:50
  TRACK 22 AUDIO
    TITLE "8:cjc124_2818"
    INDEX 01 00:30:69
  TRACK 23 AUDIO
    TITLE "0:"
    INDEX 01 00:33:24
  TRACK 24 AUDIO
    TITLE "7:cjc124_2819"
    INDEX 01 00:33:58
  TRACK 25 AUDIO
    TITLE "0:"
    INDEX 01 00:36:68
  TRACK 26 AUDIO
    TITLE "8:cjc124_2820"
    INDEX 01 00:37:16
  TRACK 27 AUDIO
    TITLE "0:"
    INDEX 01 00:40:30
  TRACK 28 AUDIO
    TITLE "7:cjc124_2821"
    INDEX 01 00:40:68
  TRACK 29 AUDIO
    TITLE "0:"
    INDEX 01 00:43:54
  TRACK 30 AUDIO
    TITLE "8:cjc124_2822"
    INDEX 01 00:43:74
  TRACK 31 AUDIO
    TITLE "0:"
    INDEX 01 00:46:72
  TRACK 32 AUDIO
    TITLE "7:cjc124_2823"
    INDEX 01 00:47:38
  TRACK 33 AUDIO
    TITLE "0:"
    INDEX 01 00:50:68
  TRACK 34 AUDIO
    TITLE "8:cjc124_2824"
    INDEX 01 00:51:11
  TRACK 35 AUDIO
    TITLE "0:"
    INDEX 01 00:55:16
  TRACK 36 AUDIO
    TITLE "7:cjc124_2825"
    INDEX 01 00:55:51
  TRACK 37 AUDIO
    TITLE "0:"
    INDEX 01 00:58:28
  TRACK 38 AUDIO
    TITLE "8:cjc124_2826"
    INDEX 01 00:58:42
  TRACK 39 AUDIO
    TITLE "0:"
    INDEX 01 01:00:74
  TRACK 40 AUDIO
    TITLE "7:cjc124_2827"
    INDEX 01 01:01:34
  TRACK 41 AUDIO
    TITLE "0:"
    INDEX 01 01:03:69
  TRACK 42 AUDIO
    TITLE "8:cjc124_2828"
    INDEX 01 01:04:11
  TRACK 43 AUDIO
    TITLE "0:"
    INDEX 01 01:07:02
  TRACK 44 AUDIO
    TITLE "7:cjc124_2829"
    INDEX 01 01:07:41
  TRACK 45 AUDIO
    TITLE "0:"
    INDEX 01 01:10:51
  TRACK 46 AUDIO
    TITLE "8:cjc124_2830"
    INDEX 01 01:11:07
  TRACK 47 AUDIO
    TITLE "0:"
    INDEX 01 01:14:59
  TRACK 48 AUDIO
    TITLE "7:cjc124_2831"
    INDEX 01 01:15:23
  TRACK 49 AUDIO
    TITLE "0:"
    INDEX 01 01:19:15
  TRACK 50 AUDIO
    TITLE "8:cjc124_2832"
    INDEX 01 01:19:32
  TRACK 51 AUDIO
    TITLE "0:"
    INDEX 01 01:22:35
  TRACK 52 AUDIO
    TITLE "7:cjc124_2833"
    INDEX 01 01:22:72
  TRACK 53 AUDIO
    TITLE "0:"
    INDEX 01 01:26:15
  TRACK 54 AUDIO
    TITLE "8:cjc124_2834"
    INDEX 01 01:26:32
  TRACK 55 AUDIO
    TITLE "0:"
    INDEX 01 01:30:67
  TRACK 56 AUDIO
    TITLE "7:cjc124_2835"
    INDEX 01 01:31:30
  TRACK 57 AUDIO
    TITLE "0:"
    INDEX 01 01:34:03
  TRACK 58 AUDIO
    TITLE "8:cjc124_2836"
    INDEX 01 01:34:16
  TRACK 59 AUDIO
    TITLE "0:"
    INDEX 01 01:36:72
  TRACK 60 AUDIO
    TITLE "7:cjc124_2837"
    INDEX 01 01:37:30
  TRACK 61 AUDIO
    TITLE "0:"
    INDEX 01 01:40:05
  TRACK 62 AUDIO
    TITLE "8:cjc124_2838"
    INDEX 01 01:40:25
  TRACK 63 AUDIO
    TITLE "0:"
    INDEX 01 01:43:00
  TRACK 64 AUDIO
    TITLE "7:cjc124_2839"
    INDEX 01 01:43:37
  TRACK 65 AUDIO
    TITLE "0:"
    INDEX 01 01:46:27
  TRACK 66 AUDIO
    TITLE "8:cjc124_2840"
    INDEX 01 01:46:59
  TRACK 67 AUDIO
    TITLE "0:"
    INDEX 01 01:50:09
